<svg width="39" height="24" viewBox="0 0 39 24" fill="none" xmlns="http://www.w3.org/2000/svg">
<rect x="0.5" y="0.5" width="38" height="23" rx="2.5" fill="white" stroke="#2671B9"/>
<path fill-rule="evenodd" clip-rule="evenodd" d="M23.6947 20.2027V11.6027L39 11.6173V13.992L37.2307 15.8827L39 17.7907V20.216H36.176L34.6747 18.56L33.184 20.2227L23.6947 20.2027Z" fill="white"/>
<path fill-rule="evenodd" clip-rule="evenodd" d="M24.716 19.26V12.5493H30.4067V14.0946H26.5587V15.144H30.3147V16.664H26.5587V17.6947H30.4067V19.26H24.716Z" fill="#2671B9"/>
<path fill-rule="evenodd" clip-rule="evenodd" d="M30.3773 19.26L33.5267 15.9L30.3773 12.5493H32.8147L34.7387 14.676L36.668 12.5493H39V12.6026L35.9187 15.9L39 19.164V19.26H36.644L34.6867 17.112L32.748 19.26H30.3773Z" fill="#2671B9"/>
<path fill-rule="evenodd" clip-rule="evenodd" d="M24.408 3.96933H28.0973L29.3933 6.912V3.96933H33.948L34.7333 6.17466L35.5213 3.96933H39V12.5693H20.6187L24.408 3.96933Z" fill="white"/>
<path fill-rule="evenodd" clip-rule="evenodd" d="M25.1067 4.90399L22.1293 11.6093H24.1707L24.7333 10.2667H27.7773L28.3333 11.6093H30.4253L27.4653 4.90399H25.1067ZM25.3627 8.76132L26.256 6.62799L27.148 8.76132H25.3627Z" fill="#2671B9"/>
<path fill-rule="evenodd" clip-rule="evenodd" d="M30.4027 11.608V4.90265L33.2733 4.91332L34.7507 9.03465L36.2373 4.90265H39V11.608L37.2227 11.624V7.01732L35.544 11.608H33.9213L32.208 7.00265V11.608H30.4027Z" fill="#2671B9"/>
</svg>