<svg width="24" height="24" viewBox="0 0 69 69" fill="none" xmlns="http://www.w3.org/2000/svg">
<mask id="mask0_722_428" style="mask-type:alpha" maskUnits="userSpaceOnUse" x="7" y="2" width="55" height="65">
<path d="M47.4375 2.875H12.9375C9.775 2.875 7.1875 5.4625 7.1875 8.625V48.875H12.9375V8.625H47.4375V2.875ZM44.5625 14.375H24.4375C21.275 14.375 18.7163 16.9625 18.7163 20.125L18.6875 60.375C18.6875 63.5375 21.2462 66.125 24.4087 66.125H56.0625C59.225 66.125 61.8125 63.5375 61.8125 60.375V31.625L44.5625 14.375ZM24.4375 60.375V20.125H41.6875V34.5H56.0625V60.375H24.4375Z" fill="white"/>
</mask>
<g mask="url(#mask0_722_428)">
<path d="M47.4375 2.875H12.9375C9.775 2.875 7.1875 5.4625 7.1875 8.625V48.875H12.9375V8.625H47.4375V2.875ZM44.5625 14.375H24.4375C21.275 14.375 18.7163 16.9625 18.7163 20.125L18.6875 60.375C18.6875 63.5375 21.2462 66.125 24.4087 66.125H56.0625C59.225 66.125 61.8125 63.5375 61.8125 60.375V31.625L44.5625 14.375ZM24.4375 60.375V20.125H41.6875V34.5H56.0625V60.375H24.4375Z" fill="#99ACC2"/>
</g>
</svg>
