<svg width="39" height="24" viewBox="0 0 39 24" fill="none" xmlns="http://www.w3.org/2000/svg">
<rect x="0.5" y="0.5" width="38" height="23" rx="2.5" fill="white" stroke="#004A98"/>
<path d="M18.3078 19.86C22.5727 19.86 26.0301 16.4026 26.0301 12.1377C26.0301 7.87284 22.5727 4.41547 18.3078 4.41547C14.0429 4.41547 10.5856 7.87284 10.5856 12.1377C10.5856 16.4026 14.0429 19.86 18.3078 19.86Z" fill="white"/>
<path d="M18.3198 19.9998C16.1992 20.0147 14.1591 19.1885 12.6465 17.7021C11.1339 16.2157 10.2721 14.1904 10.25 12.0698C10.25 7.29983 13.8934 4 18.3198 4H20.3932C24.7876 4 28.7586 7.29584 28.7586 12.0698C28.7586 16.4323 24.7637 19.9998 20.3932 19.9998H18.3198ZM18.3198 4.66316C16.8725 4.66711 15.4589 5.09984 14.2574 5.90669C13.0559 6.71354 12.1204 7.85834 11.5691 9.19651C11.0178 10.5347 10.8754 12.0062 11.1599 13.4253C11.4444 14.8443 12.143 16.1472 13.1675 17.1695C14.192 18.1918 15.4964 18.8875 16.9161 19.1689C18.3357 19.4503 19.8069 19.3047 21.1439 18.7505C22.4809 18.1963 23.6236 17.2583 24.4279 16.055C25.2321 14.8518 25.6617 13.4372 25.6625 11.9899C25.6625 11.0278 25.473 10.075 25.1048 9.18609C24.7366 8.29716 24.1969 7.48947 23.5166 6.80912C22.8362 6.12877 22.0285 5.58908 21.1396 5.22088C20.2507 4.85267 19.298 4.66316 18.3358 4.66316H18.3198ZM16.6739 16.3165V7.65539C15.7979 7.99138 15.0444 8.58516 14.5128 9.35833C13.9813 10.1315 13.6967 11.0477 13.6967 11.9859C13.6967 12.9242 13.9813 13.8404 14.5128 14.6135C15.0444 15.3867 15.7979 15.9805 16.6739 16.3165ZM22.9779 11.9899C22.9782 11.0502 22.6935 10.1325 22.1614 9.35792C21.6294 8.58335 20.8749 7.98833 19.9977 7.65139V16.3204C20.8737 15.984 21.6272 15.3902 22.1592 14.6172C22.6911 13.8442 22.9766 12.9283 22.9779 11.9899Z" fill="#004A98"/>
</svg>
