<svg width="39" height="24" viewBox="0 0 39 24" fill="none" xmlns="http://www.w3.org/2000/svg">
<rect x="0.5" y="0.5" width="38" height="23" rx="2.5" fill="white" stroke="#231F20"/>
<mask id="mask0" mask-type="alpha" maskUnits="userSpaceOnUse" x="1" y="1" width="37" height="22">
<rect x="1.25" y="1.25" width="36.5" height="21.5" rx="1.75" fill="white" stroke="#2671B9" stroke-width="0.5"/>
</mask>
<g mask="url(#mask0)">
<path d="M0 0H39V24H0.0103368L0 0Z" fill="white"/>
<path d="M38.0025 13.1197C38.0025 13.1197 27.3455 20.6344 7.83 24.0041H38.0025V13.1197Z" fill="#F48120"/>
<path d="M3.58129 6.84116H2V12.3807H3.58129C4.41727 12.3807 5.02158 12.1793 5.5554 11.7462C6.18993 11.2224 6.56259 10.4368 6.56259 9.62101C6.55252 7.97928 5.33381 6.84116 3.58129 6.84116ZM4.85036 11.0109C4.50791 11.3131 4.07482 11.4541 3.36978 11.4541H3.0777V7.78792H3.36978C4.06475 7.78792 4.48777 7.90878 4.85036 8.23108C5.22302 8.56346 5.4446 9.07713 5.4446 9.61094C5.4446 10.1448 5.22302 10.6786 4.85036 11.0109Z" fill="#231F20"/>
<path d="M8.13382 6.84116H7.05612V12.3807H8.13382V6.84116Z" fill="#231F20"/>
<path d="M10.7727 8.96634C10.1281 8.72462 9.93669 8.56347 9.93669 8.27138C9.93669 7.91886 10.2791 7.65699 10.7424 7.65699C11.0647 7.65699 11.3367 7.78793 11.6086 8.11023L12.1727 7.37498C11.7094 6.9721 11.1554 6.76059 10.541 6.76059C9.56403 6.76059 8.80863 7.44548 8.80863 8.35196C8.80863 9.11742 9.16115 9.51023 10.1683 9.87282C10.5914 10.0239 10.8029 10.1246 10.9137 10.185C11.1252 10.3261 11.236 10.5275 11.236 10.7591C11.236 11.2124 10.8835 11.5448 10.4 11.5448C9.88633 11.5448 9.47338 11.2829 9.22158 10.8095L8.52662 11.4843C9.02014 12.2196 9.62446 12.5419 10.4403 12.5419C11.5583 12.5419 12.354 11.7966 12.354 10.7189C12.3741 9.82246 12.0014 9.41958 10.7727 8.96634Z" fill="#231F20"/>
<path d="M12.7065 9.62099C12.7065 11.2526 13.9856 12.5116 15.6273 12.5116C16.0906 12.5116 16.4935 12.421 16.977 12.1893V10.9203C16.5439 11.3534 16.1612 11.5246 15.6777 11.5246C14.5899 11.5246 13.8144 10.739 13.8144 9.61092C13.8144 8.5433 14.6101 7.70732 15.6273 7.70732C16.141 7.70732 16.5338 7.88862 16.977 8.33179V7.06272C16.5036 6.82099 16.1108 6.72028 15.6475 6.72028C14.0259 6.72028 12.7065 8.00948 12.7065 9.62099Z" fill="#231F20"/>
<path d="M25.5583 10.5678L24.0777 6.84116H22.8993L25.246 12.5217H25.8302L28.2173 6.84116H27.0489L25.5583 10.5678Z" fill="#231F20"/>
<path d="M28.7108 12.3807H31.7727V11.444H29.7885V9.95338H31.7022V9.01669H29.7885V7.78792H31.7727V6.84116H28.7108V12.3807Z" fill="#231F20"/>
<path d="M36.0532 8.48288C36.0532 7.44547 35.3381 6.85123 34.0892 6.85123H32.4878V12.3908H33.5655V10.1649H33.7065L35.1971 12.3908H36.5266L34.7842 10.0541C35.6 9.88288 36.0532 9.32893 36.0532 8.48288ZM33.8777 9.39943H33.5655V7.71741H33.8978C34.5727 7.71741 34.9352 7.99943 34.9352 8.54331C34.9352 9.09727 34.5727 9.39943 33.8777 9.39943Z" fill="#231F20"/>
<path d="M20.2906 12.5821C21.9205 12.5821 23.2417 11.2609 23.2417 9.63107C23.2417 8.00124 21.9205 6.67999 20.2906 6.67999C18.6608 6.67999 17.3396 8.00124 17.3396 9.63107C17.3396 11.2609 18.6608 12.5821 20.2906 12.5821Z" fill="url(#paint0_linear)"/>
<path opacity="0.65" d="M20.2906 12.5821C21.9205 12.5821 23.2417 11.2609 23.2417 9.63107C23.2417 8.00124 21.9205 6.67999 20.2906 6.67999C18.6608 6.67999 17.3396 8.00124 17.3396 9.63107C17.3396 11.2609 18.6608 12.5821 20.2906 12.5821Z" fill="url(#paint1_linear)"/>
<path d="M36.7381 7.05269C36.7381 6.95197 36.6676 6.90161 36.5568 6.90161H36.3957V7.38506H36.5165V7.1937L36.6575 7.38506H36.7986L36.6374 7.18363C36.6978 7.17355 36.7381 7.12319 36.7381 7.05269ZM36.5367 7.1232H36.5165V6.99226H36.5367C36.5971 6.99226 36.6273 7.0124 36.6273 7.05269C36.6273 7.10305 36.5971 7.1232 36.5367 7.1232Z" fill="#231F20"/>
<path d="M36.577 6.72028C36.3453 6.72028 36.154 6.91164 36.154 7.1433C36.154 7.37495 36.3453 7.56632 36.577 7.56632C36.8086 7.56632 37 7.37495 37 7.1433C37 6.91164 36.8086 6.72028 36.577 6.72028ZM36.577 7.49581C36.3957 7.49581 36.2345 7.34474 36.2345 7.1433C36.2345 6.95193 36.3856 6.79078 36.577 6.79078C36.7583 6.79078 36.9094 6.95193 36.9094 7.1433C36.9094 7.33466 36.7583 7.49581 36.577 7.49581Z" fill="#231F20"/>
</g>
<defs>
<linearGradient id="paint0_linear" x1="21.799" y1="11.9926" x2="19.759" y2="8.79866" gradientUnits="userSpaceOnUse">
<stop stop-color="#F89F20"/>
<stop offset="0.2502" stop-color="#F79A20"/>
<stop offset="0.5331" stop-color="#F68D20"/>
<stop offset="0.6196" stop-color="#F58720"/>
<stop offset="0.7232" stop-color="#F48120"/>
<stop offset="1" stop-color="#F37521"/>
</linearGradient>
<linearGradient id="paint1_linear" x1="21.4769" y1="11.9497" x2="18.4954" y2="6.12221" gradientUnits="userSpaceOnUse">
<stop stop-color="#F58720"/>
<stop offset="0.3587" stop-color="#E16F27"/>
<stop offset="0.703" stop-color="#D4602C"/>
<stop offset="0.9816" stop-color="#D05B2E"/>
</linearGradient>
</defs>
</svg>
