<svg width="39" height="24" viewBox="0 0 39 24" fill="none" xmlns="http://www.w3.org/2000/svg">
<rect x="0.5" y="0.5" width="38" height="23" rx="2.5" fill="white" stroke="#B82126"/>
<path d="M11.8337 4.59998H8.30989C6.75291 4.67359 5.4802 5.30071 5.11271 6.59391C4.92109 7.26835 4.81564 8.00906 4.6658 8.70819C3.90407 12.2631 3.22863 15.9159 2.5 19.3998H29.9338C32.0547 19.3998 33.5109 18.9516 33.9044 17.2683C34.0873 16.4864 34.2624 15.6006 34.4373 14.7415C35.1192 11.3918 35.8016 8.04236 36.5 4.59998H11.8337Z" fill="#B82126"/>
<path d="M25.9879 13.4422C25.6074 13.8147 24.5394 13.9205 24.6487 13.0301C24.7394 12.2907 25.5445 12.1335 26.4171 12.2403C26.3522 12.6448 26.2778 13.1584 25.9879 13.4422ZM24.786 10.5577C24.7497 10.7617 24.6939 10.9463 24.6487 11.1415C25.0843 11.0323 26.4409 10.6973 26.5717 11.2788C26.6151 11.472 26.5402 11.6773 26.4858 11.8283C25.259 11.7121 24.2591 11.9159 23.9962 12.7897C23.8201 13.3751 24.0159 13.9511 24.3911 14.1119C25.1137 14.4214 25.9927 14.0668 26.2969 13.5796C26.2653 13.7483 26.2354 13.9186 26.2454 14.129H26.8807C26.8874 13.5206 26.9759 13.0281 27.0695 12.4807C27.1493 12.0145 27.2994 11.5529 27.2755 11.1415C27.221 10.1991 25.6599 10.5325 24.786 10.5577ZM31.1559 13.7341C30.6589 13.7447 30.4117 13.4371 30.4004 12.9271C30.3806 12.0339 30.7724 11.0416 31.5679 10.9526C31.9383 10.9112 32.2065 10.9973 32.4779 11.09C32.2288 12.0933 32.3187 13.7091 31.1559 13.7341ZM32.8041 9.01245C32.7409 9.56725 32.6563 10.1008 32.5467 10.6092C30.7357 10.036 29.625 11.3684 29.6449 13.0129C29.6489 13.331 29.7036 13.6464 29.9025 13.8714C30.2453 14.2591 31.2269 14.3519 31.7225 14.026C31.8185 13.9629 31.9165 13.8481 31.9801 13.7685C32.0278 13.7085 32.1037 13.5515 32.1173 13.5967C32.0913 13.771 32.0524 13.9324 32.0487 14.129H32.7183C32.8473 12.2778 33.2464 10.6966 33.5425 9.01245H32.8041ZM13.9005 13.4594C13.5055 13.8777 12.5345 13.8713 12.4583 13.1675C12.4251 12.8612 12.5393 12.5401 12.5957 12.2232C12.6527 11.9025 12.6938 11.5947 12.7501 11.3131C13.1392 10.8381 14.2825 10.7807 14.3985 11.5707C14.4991 12.2566 14.2277 13.1129 13.9005 13.4594ZM14.4843 10.5577C13.8595 10.323 13.0979 10.6032 12.7677 10.8697C12.7689 10.8815 12.7599 10.8831 12.7501 10.8839C12.7558 10.8792 12.7619 10.8745 12.7677 10.8697C12.7677 10.8687 12.7676 10.8679 12.7673 10.8668C12.7729 10.7521 12.8133 10.6723 12.8189 10.5577H12.1836C11.9189 12.319 11.6049 14.031 11.2736 15.7257H12.0119C12.1187 15.0657 12.1893 14.3694 12.3381 13.7513C12.5067 14.4014 13.6077 14.2771 14.0722 14.026C15.0308 13.5077 15.7701 11.0407 14.4843 10.5577ZM17.9869 11.7939H16.2528C16.3077 11.3953 16.6663 10.9571 17.2314 10.9355C17.7633 10.9151 18.1441 11.1307 17.9869 11.7939ZM17.2829 10.4891C16.7495 10.5301 16.2985 10.6837 15.9781 11.0213C15.585 11.4354 15.2667 12.3509 15.3599 13.1847C15.493 14.3741 16.974 14.3315 18.1586 14.0431C18.1787 13.8344 18.2293 13.6559 18.2616 13.4594C17.7736 13.642 16.9263 13.8969 16.4245 13.5796C16.0455 13.34 16.0433 12.7333 16.1669 12.206C16.9631 12.1807 17.7905 12.1855 18.5878 12.206C18.6384 11.8323 18.7831 11.4248 18.6565 11.0557C18.4894 10.5683 17.8915 10.4422 17.2829 10.4891ZM10.7929 10.5577C10.7729 10.5606 10.7742 10.5849 10.7757 10.6092C10.613 11.8258 10.3929 12.985 10.1576 14.129H10.8959C11.0733 12.9042 11.2765 11.7053 11.5311 10.5577H10.7929ZM30.0571 10.5749C29.4045 10.2487 28.8613 10.7961 28.6492 11.1243C28.7096 10.9559 28.7131 10.7304 28.7693 10.5577H28.1169C27.941 11.784 27.7289 12.9741 27.4816 14.129H28.2371C28.2419 13.6557 28.3348 13.3055 28.4087 12.8413C28.5667 11.8501 28.7984 10.7631 29.9541 11.09C29.9924 10.9223 30.0083 10.7322 30.0571 10.5749ZM21.7641 13.2877C21.6961 13.1119 21.6785 12.8215 21.6955 12.6009C21.7337 12.1047 21.9144 11.5007 22.1934 11.2273C22.5784 10.8499 23.3385 10.9124 23.9447 11.1243C23.9635 10.9199 24.0045 10.7377 24.0305 10.5406C23.0363 10.3782 22.0927 10.4792 21.5925 11.0041C21.1028 11.518 20.7817 12.6991 21.0087 13.4422C21.2743 14.3118 22.4653 14.3591 23.4297 14.026C23.4723 13.8512 23.4949 13.6563 23.5327 13.4765C23.0057 13.7503 21.9983 13.8926 21.7641 13.2877ZM21.3521 10.5577C20.6975 10.2933 20.1829 10.7401 19.9443 11.1587C19.9983 10.9725 20.0207 10.7544 20.0644 10.5577H19.4119C19.2525 11.7947 19.0173 12.9561 18.7939 14.129H19.5322C19.6357 13.4327 19.6803 12.4943 19.9099 11.8283C20.0933 11.2961 20.5735 10.8427 21.2663 11.09C21.276 10.8937 21.3322 10.7438 21.3521 10.5577ZM9.45367 9.11545C9.3482 9.79978 9.2294 10.4708 9.11027 11.1415C8.3454 11.1495 7.56447 11.1793 6.82673 11.1243C6.96607 10.4682 7.066 9.77258 7.2044 9.11545H6.38033C6.08527 10.7893 5.81693 12.4897 5.48753 14.129H6.3288C6.4608 13.288 6.5842 12.4385 6.758 11.6394C7.47533 11.6217 8.33507 11.5909 9.0244 11.6566C8.88227 12.4874 8.71053 13.2885 8.578 14.129H9.41933C9.6896 12.4305 9.97447 10.7466 10.3121 9.11545H9.45367ZM11.5483 9.87092C11.6955 9.76958 11.8851 9.30772 11.6685 9.11545C11.5999 9.05458 11.4851 9.03692 11.3251 9.06398C11.1767 9.08905 11.0913 9.13945 11.0333 9.21845C10.9399 9.34552 10.8545 9.72858 10.9989 9.87092C11.1395 10.0095 11.4547 9.93538 11.5483 9.87092Z" fill="white"/>
</svg>
