<svg width="39" height="24" viewBox="0 0 39 24" fill="none" xmlns="http://www.w3.org/2000/svg">
<rect x="0.5" y="0.5" width="38" height="23" rx="2.5" fill="white" stroke="black"/>
<path d="M24.2312 12.2854C24.7369 12.2971 25.2485 12.2618 25.7483 12.303C26.2599 12.3971 26.3833 13.1736 25.9306 13.4266C25.6189 13.5913 25.2543 13.4913 24.9192 13.5207H24.2312V12.2854ZM26.0423 10.8912C26.154 11.2853 25.7718 11.6441 25.3896 11.5912H24.2312C24.2371 11.2147 24.2136 10.8088 24.243 10.4559C24.7075 10.4676 25.1779 10.4264 25.6366 10.4794C25.8365 10.5264 26.0011 10.6912 26.0423 10.8912ZM28.8295 5.00854C28.853 5.7674 28.8354 6.56744 28.8412 7.33806C28.8412 10.4853 28.8471 13.6266 28.8412 16.7738C28.8236 17.9503 27.7769 18.9739 26.6068 18.9974C25.4366 19.0033 24.2665 18.9974 23.0963 18.9974V14.2443C24.3723 14.2384 25.6483 14.256 26.9243 14.2325C27.5182 14.1972 28.165 13.8031 28.1944 13.156C28.265 12.503 27.6476 12.0501 27.0596 11.9795C26.8361 11.9736 26.842 11.9147 27.0596 11.8853C27.6182 11.7618 28.0592 11.1853 27.8945 10.6088C27.7534 9.99701 27.0831 9.76171 26.5245 9.76759C25.3837 9.76171 24.243 9.76759 23.1022 9.76171C23.1081 8.87343 23.0846 7.98515 23.114 7.09688C23.2022 5.938 24.2724 4.98501 25.4307 5.00854H28.8295Z" fill="url(#paint0_linear)"/>
<path d="M10.1953 7.21448C10.2247 6.03796 11.2714 5.02026 12.4415 5.00261C13.6058 4.99673 14.7759 5.00261 15.9402 5.00261C15.9343 8.93809 15.9461 12.8736 15.9343 16.8149C15.8873 17.9797 14.8524 18.9739 13.694 18.9915C12.5238 18.9974 11.3537 18.9915 10.1894 18.9915V14.0795C11.3243 14.3501 12.5179 14.4619 13.6763 14.2854C14.3702 14.1736 15.1287 13.8324 15.3581 13.1148C15.5286 12.503 15.4345 11.8559 15.458 11.2206V9.75578H13.4529C13.4411 10.7264 13.4705 11.697 13.4411 12.6618C13.3882 13.2559 12.8002 13.6324 12.2357 13.6148C11.5418 13.6207 10.16 13.1089 10.16 13.1089C10.1659 11.3029 10.1894 9.02633 10.1953 7.21448Z" fill="url(#paint1_linear)"/>
<path d="M16.6929 10.3499C16.587 10.3734 16.6693 9.99103 16.6458 9.84396C16.6517 8.92627 16.6282 8.00858 16.6576 7.09678C16.7458 5.93202 17.8277 4.97903 18.9861 5.00256H22.3966C22.3907 8.93804 22.4025 12.8735 22.3907 16.8149C22.3437 17.9796 21.3088 18.9738 20.1504 18.9914C18.9802 18.9973 17.8101 18.9914 16.6458 18.9914V13.6088C17.4455 14.2618 18.5275 14.3677 19.5212 14.3677C20.2739 14.3677 21.0148 14.25 21.7439 14.0795V13.0912C20.9207 13.503 19.9563 13.7618 19.0508 13.5265C18.4157 13.3677 17.9571 12.7559 17.9688 12.097C17.8924 11.4146 18.2923 10.6969 18.9626 10.4911C19.7917 10.2322 20.6972 10.4322 21.4793 10.7675C21.6439 10.8558 21.8145 10.9617 21.7498 10.6852V9.90867C20.4444 9.59689 19.0626 9.48512 17.7513 9.82043C17.3691 9.93809 16.9986 10.1028 16.6929 10.3499Z" fill="url(#paint2_linear)"/>
<defs>
<linearGradient id="paint0_linear" x1="23.0687" y1="12.0019" x2="28.8221" y2="12.0019" gradientUnits="userSpaceOnUse">
<stop stop-color="#007B40"/>
<stop offset="1" stop-color="#55B330"/>
</linearGradient>
<linearGradient id="paint1_linear" x1="10.2086" y1="12.0018" x2="15.9564" y2="12.0018" gradientUnits="userSpaceOnUse">
<stop stop-color="#1D2970"/>
<stop offset="1" stop-color="#006DBA"/>
</linearGradient>
<linearGradient id="paint2_linear" x1="16.6478" y1="12.0027" x2="22.4044" y2="12.0027" gradientUnits="userSpaceOnUse">
<stop stop-color="#6E2B2F"/>
<stop offset="1" stop-color="#E30138"/>
</linearGradient>
</defs>
</svg>
