<svg width="39" height="24" viewBox="0 0 39 24" fill="none" xmlns="http://www.w3.org/2000/svg">
<rect x="0.5" y="0.5" width="38" height="23" rx="2.5" fill="white" stroke="black"/>
<path d="M15.1826 20.4062V19.2805C15.1891 19.1861 15.1755 19.0913 15.1426 19.0026C15.1096 18.9138 15.0582 18.8331 14.9916 18.7658C14.925 18.6986 14.8449 18.6462 14.7565 18.6124C14.6681 18.5785 14.5735 18.5638 14.479 18.5694C14.355 18.5613 14.2311 18.5866 14.1202 18.6427C14.0093 18.6988 13.9155 18.7836 13.8486 18.8884C13.7876 18.7868 13.7003 18.7035 13.596 18.6474C13.4917 18.5913 13.3741 18.5643 13.2557 18.5694C13.1525 18.5642 13.0498 18.586 12.9576 18.6328C12.8655 18.6795 12.7872 18.7495 12.7304 18.8358V18.6144H12.3401V20.4062H12.7341V19.4137C12.7254 19.3523 12.7304 19.2897 12.7489 19.2305C12.7673 19.1713 12.7986 19.1169 12.8407 19.0713C12.8827 19.0257 12.9343 18.99 12.9918 18.9668C13.0493 18.9436 13.1113 18.9335 13.1732 18.9371C13.4321 18.9371 13.5634 19.106 13.5634 19.4099V20.4062H13.9574V19.4137C13.9494 19.3524 13.9549 19.2901 13.9736 19.2312C13.9923 19.1723 14.0236 19.1182 14.0655 19.0728C14.1074 19.0273 14.1587 18.9916 14.2159 18.9682C14.2731 18.9447 14.3347 18.9341 14.3965 18.9371C14.6629 18.9371 14.7905 19.106 14.7905 19.4099V20.4062H15.1826ZM17.3777 19.5113V18.6163H16.9837V18.834C16.9175 18.7486 16.832 18.6802 16.7341 18.6345C16.6362 18.5888 16.5288 18.5672 16.4209 18.5713C16.1721 18.5713 15.9335 18.6701 15.7575 18.846C15.5816 19.022 15.4828 19.2606 15.4828 19.5094C15.4828 19.7582 15.5816 19.9968 15.7575 20.1727C15.9335 20.3486 16.1721 20.4475 16.4209 20.4475C16.5288 20.4516 16.6362 20.4299 16.7341 20.3843C16.832 20.3386 16.9175 20.2702 16.9837 20.1848V20.4024H17.374L17.3777 19.5113ZM15.9274 19.5113C15.9336 19.4057 15.9706 19.3042 16.0338 19.2194C16.0969 19.1346 16.1835 19.07 16.2829 19.0338C16.3822 18.9975 16.49 18.9911 16.5929 19.0154C16.6959 19.0396 16.7895 19.0934 16.8623 19.1702C16.935 19.2469 16.9837 19.3433 17.0024 19.4474C17.0211 19.5515 17.0089 19.6588 16.9674 19.7561C16.9258 19.8533 16.8568 19.9363 16.7687 19.9948C16.6806 20.0534 16.5773 20.0848 16.4715 20.0854C16.3968 20.0871 16.3226 20.0733 16.2536 20.0447C16.1846 20.0161 16.1223 19.9734 16.0707 19.9194C16.0192 19.8653 15.9794 19.8011 15.9541 19.7308C15.9288 19.6606 15.9184 19.5858 15.9237 19.5113H15.9274ZM25.7155 18.5732C25.844 18.5728 25.9713 18.597 26.0907 18.6445C26.2047 18.6901 26.3086 18.7577 26.3966 18.8433C26.4834 18.9282 26.5523 19.0297 26.5992 19.1416C26.6972 19.3822 26.6972 19.6516 26.5992 19.8921C26.5523 20.0041 26.4834 20.1056 26.3966 20.1904C26.3086 20.2761 26.2047 20.3437 26.0907 20.3893C25.8433 20.4854 25.5689 20.4854 25.3215 20.3893C25.2081 20.3437 25.1048 20.2761 25.0176 20.1904C24.9316 20.1052 24.8633 20.0039 24.8168 19.8921C24.719 19.6515 24.719 19.3822 24.8168 19.1416C24.8633 19.0299 24.9316 18.9285 25.0176 18.8433C25.1048 18.7576 25.2081 18.6901 25.3215 18.6445C25.4452 18.5932 25.5779 18.567 25.7117 18.5675L25.7155 18.5732ZM25.7155 18.9484C25.6391 18.9474 25.5632 18.9614 25.4922 18.9897C25.4254 19.0165 25.3647 19.0567 25.314 19.1079C25.2623 19.1617 25.222 19.2256 25.1958 19.2955C25.1385 19.4453 25.1385 19.611 25.1958 19.7608C25.222 19.8307 25.2622 19.8946 25.314 19.9484C25.3647 19.9996 25.4253 20.0398 25.4922 20.0666C25.6352 20.1226 25.794 20.1226 25.9369 20.0666C26.007 20.0407 26.0709 20.0004 26.1245 19.9484C26.1764 19.8946 26.2166 19.8308 26.2427 19.7608C26.3 19.611 26.3 19.4453 26.2427 19.2955C26.2166 19.2255 26.1764 19.1616 26.1245 19.1079C26.0709 19.0558 26.007 19.0156 25.9369 18.9897C25.8661 18.9573 25.7896 18.9394 25.7117 18.9371L25.7155 18.9484ZM19.4978 19.5113C19.4978 18.9484 19.1488 18.5732 18.6479 18.5732C18.3991 18.5766 18.1619 18.6788 17.9884 18.8572C17.8149 19.0356 17.7195 19.2756 17.7229 19.5244C17.7264 19.7732 17.8286 20.0104 18.007 20.1839C18.1854 20.3573 18.4254 20.4528 18.6742 20.4493C18.9413 20.4585 19.2024 20.369 19.4078 20.1979L19.2201 19.909C19.072 20.0278 18.8884 20.0938 18.6986 20.0966C18.5696 20.1077 18.4413 20.0681 18.3411 19.9861C18.2409 19.9041 18.1766 19.7862 18.162 19.6576H19.4922C19.4978 19.6107 19.4978 19.5638 19.4978 19.5113ZM18.1638 19.3537C18.1711 19.2346 18.2242 19.1229 18.312 19.0421C18.3998 18.9613 18.5155 18.9176 18.6348 18.9203C18.6932 18.919 18.7512 18.9293 18.8057 18.9505C18.8601 18.9717 18.9098 19.0034 18.952 19.0438C18.9941 19.0842 19.0279 19.1326 19.0514 19.1861C19.0749 19.2395 19.0876 19.2971 19.0888 19.3555L18.1638 19.3537ZM21.1395 19.0722C20.9681 18.9736 20.7743 18.9206 20.5766 18.9184C20.3627 18.9184 20.2352 18.9972 20.2352 19.1285C20.2352 19.2598 20.3702 19.2824 20.5391 19.3049L20.7267 19.3311C21.117 19.3874 21.3534 19.5525 21.3534 19.8677C21.3534 20.1829 21.0532 20.4531 20.5372 20.4531C20.2607 20.4605 19.9891 20.3789 19.7624 20.2205L19.95 19.9165C20.1222 20.0442 20.3323 20.1103 20.5466 20.1041C20.813 20.1041 20.9556 20.0253 20.9556 19.8865C20.9556 19.7852 20.8543 19.7289 20.6404 19.6989L20.4528 19.6726C20.0513 19.6163 19.8337 19.4362 19.8337 19.1435C19.8337 18.787 20.1263 18.5694 20.5841 18.5694C20.8403 18.5608 21.0936 18.6259 21.314 18.757L21.1395 19.0722ZM23.0157 18.9709H22.3796V19.7795C22.3796 19.9672 22.4434 20.0797 22.6385 20.0797C22.7603 20.0757 22.8791 20.0409 22.9838 19.9784L23.0963 20.3124C22.9501 20.4037 22.781 20.4518 22.6085 20.4512C22.147 20.4512 21.9856 20.2036 21.9856 19.7871V18.9709H21.6217V18.6144H21.9856V18.0703H22.3796V18.6144H23.0157V18.9709ZM24.3646 18.5694C24.4593 18.5698 24.5532 18.5863 24.6423 18.6182L24.5222 18.9934C24.4447 18.9625 24.3618 18.9472 24.2783 18.9484C24.0232 18.9484 23.9031 19.1135 23.9031 19.4099V20.4137H23.5129V18.6219H23.8993V18.8396C23.9472 18.7573 24.0164 18.6895 24.0997 18.6433C24.1829 18.597 24.277 18.5741 24.3722 18.5769L24.3646 18.5694ZM27.0626 20.1454C27.087 20.1451 27.1112 20.1496 27.1339 20.1585C27.1554 20.1673 27.1752 20.1801 27.1921 20.1961C27.2086 20.2122 27.2219 20.2313 27.2315 20.2524C27.241 20.2743 27.2459 20.2979 27.2459 20.3218C27.2459 20.3457 27.241 20.3693 27.2315 20.3912C27.2219 20.4122 27.2086 20.4313 27.1921 20.4475C27.1752 20.4635 27.1554 20.4762 27.1339 20.485C27.1114 20.4949 27.0872 20.5 27.0626 20.5C27.027 20.4997 26.9923 20.4894 26.9624 20.4701C26.9325 20.4508 26.9087 20.4235 26.8938 20.3912C26.8844 20.3693 26.8795 20.3456 26.8795 20.3218C26.8795 20.2979 26.8844 20.2743 26.8938 20.2524C26.9033 20.2313 26.9167 20.2122 26.9332 20.1961C26.95 20.1801 26.9698 20.1673 26.9913 20.1585C27.0111 20.1507 27.032 20.1462 27.0532 20.1454H27.0626ZM27.0626 20.4625C27.0813 20.4626 27.0999 20.4588 27.117 20.4512C27.1332 20.444 27.1478 20.4338 27.1602 20.4212C27.1761 20.4052 27.1878 20.3855 27.1944 20.3639C27.201 20.3423 27.2023 20.3194 27.198 20.2972C27.1938 20.2751 27.1842 20.2543 27.17 20.2366C27.1559 20.219 27.1377 20.2051 27.117 20.1961C27.0999 20.1886 27.0813 20.1847 27.0626 20.1848C27.0439 20.1849 27.0254 20.1887 27.0082 20.1961C26.9913 20.203 26.976 20.2132 26.9632 20.2261C26.9397 20.2517 26.9267 20.2852 26.9267 20.3199C26.9267 20.3546 26.9397 20.3881 26.9632 20.4137C26.9762 20.4269 26.9916 20.4373 27.0087 20.4444C27.0258 20.4515 27.0441 20.4551 27.0626 20.455V20.4625ZM27.0739 20.2392C27.0914 20.2384 27.1086 20.2437 27.1226 20.2542C27.1284 20.259 27.1329 20.265 27.1358 20.2719C27.1388 20.2787 27.1401 20.2862 27.1395 20.2936C27.1398 20.2999 27.1388 20.3061 27.1365 20.3119C27.1342 20.3177 27.1308 20.323 27.1264 20.3274C27.1155 20.3373 27.1017 20.3432 27.087 20.3443L27.1414 20.4062H27.0983L27.0476 20.3443H27.0307V20.4062H26.9951V20.2336L27.0739 20.2392ZM27.0326 20.2711V20.3161H27.0739C27.0812 20.3183 27.089 20.3183 27.0964 20.3161C27.0977 20.3135 27.0984 20.3106 27.0984 20.3077C27.0984 20.3048 27.0977 20.3019 27.0964 20.2993C27.0977 20.2966 27.0984 20.2937 27.0984 20.2908C27.0984 20.2879 27.0977 20.285 27.0964 20.2824C27.089 20.2802 27.0812 20.2802 27.0739 20.2824L27.0326 20.2711Z" fill="black"/>
<path d="M22.4528 4.94452H16.5428V15.5656H22.4528V4.94452Z" fill="#7673C0"/>
<path d="M16.9181 10.2564C16.917 9.23341 17.1487 8.22354 17.5956 7.3033C18.0426 6.38307 18.6931 5.57659 19.4978 4.94495C18.5014 4.16187 17.3048 3.67492 16.0447 3.53975C14.7846 3.40458 13.5119 3.62665 12.3721 4.18058C11.2322 4.7345 10.2712 5.59794 9.59889 6.6722C8.92655 7.74645 8.57 8.9882 8.57 10.2555C8.57 11.5228 8.92655 12.7646 9.59889 13.8388C10.2712 14.9131 11.2322 15.7765 12.3721 16.3304C13.5119 16.8844 14.7846 17.1064 16.0447 16.9713C17.3048 16.8361 18.5014 16.3491 19.4978 15.5661C18.6933 14.9346 18.043 14.1284 17.596 13.2086C17.1491 12.2887 16.9172 11.2792 16.9181 10.2564Z" fill="#EB001B"/>
<path d="M29.7812 14.4399V14.2298H29.8694V14.1848H29.6461V14.2298H29.7343V14.4474L29.7812 14.4399ZM30.2146 14.4399V14.1772H30.1471L30.0683 14.3649L29.9895 14.1772H29.92V14.4399H29.9688V14.2429L30.042 14.4136H30.0926L30.1658 14.2429V14.4418L30.2146 14.4399Z" fill="#00A1DF"/>
<path d="M30.4248 10.256C30.4244 11.5231 30.0677 12.7645 29.3954 13.8385C28.723 14.9124 27.7621 15.7756 26.6225 16.3294C25.4828 16.8832 24.2104 17.1052 22.9505 16.9702C21.6906 16.8351 20.4942 16.3484 19.4978 15.5656C20.302 14.9336 20.9522 14.1272 21.3992 13.2073C21.8463 12.2873 22.0786 11.2779 22.0786 10.2551C22.0786 9.23225 21.8463 8.22279 21.3992 7.30285C20.9522 6.38291 20.302 5.57652 19.4978 4.94451C20.4942 4.16119 21.6908 3.674 22.951 3.53864C24.2111 3.40327 25.4839 3.6252 26.6239 4.17905C27.7639 4.73289 28.7251 5.59631 29.3975 6.6706C30.07 7.7449 30.4266 8.98672 30.4266 10.2541L30.4248 10.256Z" fill="#00A1DF"/>
</svg>
