<svg width="39" height="24" viewBox="0 0 39 24" fill="none" xmlns="http://www.w3.org/2000/svg">
<rect x="0.5" y="0.5" width="38" height="23" rx="2.5" fill="white" stroke="black"/>
<path d="M23.5929 5.3175H15.4109V18.6811H23.5929V5.3175Z" fill="#FF5F00"/>
<path d="M16.2536 12.0005C16.2526 10.7137 16.5443 9.44354 17.1067 8.28612C17.669 7.12871 18.4873 6.11437 19.4995 5.31988C18.2458 4.3346 16.7402 3.72191 15.1547 3.55184C13.5693 3.38177 11.968 3.66118 10.5338 4.35813C9.09965 5.05509 7.8905 6.14147 7.04455 7.49312C6.19861 8.84476 5.75 10.4071 5.75 12.0017C5.75 13.5962 6.19861 15.1586 7.04455 16.5103C7.8905 17.8619 9.09965 18.9483 10.5338 19.6452C11.968 20.3422 13.5693 20.6216 15.1547 20.4515C16.7402 20.2815 18.2458 19.6688 19.4995 18.6835C18.487 17.8888 17.6685 16.874 17.1061 15.7162C16.5438 14.5583 16.2523 13.2877 16.2536 12.0005Z" fill="#EB001B"/>
<path d="M32.4382 17.2671V16.9932H32.5562V16.9366H32.2753V16.9932H32.3863V17.2671H32.4382ZM32.9835 17.2671V16.9366H32.8985L32.7994 17.1726L32.7002 16.9366H32.6153V17.2671H32.6766V17.0168L32.7687 17.2317H32.8324L32.9245 17.0168V17.2671H32.9835Z" fill="#F79E1B"/>
<path d="M33.2503 12.0005C33.2502 13.5952 32.8015 15.1576 31.9554 16.5093C31.1093 17.861 29.9 18.9474 28.4657 19.6442C27.0313 20.3411 25.4298 20.6203 23.8443 20.45C22.2588 20.2797 20.7531 19.6667 19.4995 18.6811C20.5114 17.8859 21.3294 16.8713 21.8919 15.7138C22.4544 14.5563 22.7466 13.2862 22.7466 11.9993C22.7466 10.7124 22.4544 9.44228 21.8919 8.2848C21.3294 7.12732 20.5114 6.1127 19.4995 5.3175C20.7531 4.33191 22.2588 3.71893 23.8443 3.54861C25.4298 3.3783 27.0313 3.65753 28.4657 4.35439C29.9 5.05124 31.1093 6.13761 31.9554 7.4893C32.8015 8.84099 33.2502 10.4035 33.2503 11.9981V12.0005Z" fill="#F79E1B"/>
</svg>
