<svg width="39" height="24" viewBox="0 0 39 24" fill="none" xmlns="http://www.w3.org/2000/svg">
<rect x="0.5" y="0.5" width="38" height="23" rx="2.5" fill="white" stroke="#242424"/>
<path d="M12.7709 5H18.2953C19.065 5 19.5461 5.63867 19.3688 6.41419L16.7965 17.5807C16.6142 18.3613 15.8394 18.9949 15.0698 18.9949H9.54024C8.77056 18.9949 8.28952 18.3563 8.46674 17.5807L11.0391 6.41419C11.2264 5.6336 11.9961 5 12.7709 5Z" fill="#D10429"/>
<path d="M17.8143 5H24.1692C24.9389 5 24.5895 5.63867 24.4123 6.41419L21.8399 17.5807C21.6576 18.3613 21.7133 18.9949 20.9436 18.9949H14.5837C13.8089 18.9949 13.3329 18.3563 13.5152 17.5807L16.0876 6.41419C16.2699 5.6336 17.0396 5 17.8143 5Z" fill="#022E64"/>
<path d="M23.9464 5H29.4708C30.2405 5 30.7216 5.63867 30.5443 6.41419L27.9669 17.5858C27.7846 18.3664 27.0099 19 26.2402 19H20.7158C19.941 19 19.465 18.3613 19.6423 17.5858L22.2146 6.41926C22.402 5.6336 23.1716 5 23.9464 5Z" fill="#076F74"/>
<path d="M23.0197 15.5279H23.5413L23.6881 15.021H23.1716L23.0197 15.5279ZM23.4349 14.134L23.2526 14.7372C23.2526 14.7372 23.4501 14.6358 23.5565 14.6054C23.6628 14.58 23.8248 14.5598 23.8248 14.5598L23.9514 14.1441L23.4349 14.134ZM23.6982 13.2723L23.5261 13.8501C23.5261 13.8501 23.7185 13.7589 23.8248 13.7336C23.9312 13.7031 24.0932 13.6981 24.0932 13.6981L24.2198 13.2824L23.6982 13.2723ZM24.8477 13.2723L24.1742 15.5228H24.3565L24.2147 15.9892H24.0324L23.9869 16.1311H23.3438L23.3894 15.9892H22.088L22.2146 15.5583H22.3462L23.0298 13.2672L23.1666 12.806H23.8198L23.7539 13.0391C23.7539 13.0391 23.9261 12.9124 24.0932 12.8668C24.2603 12.8212 25.2072 12.806 25.2072 12.806L25.0654 13.2622L24.8477 13.2723Z" fill="#FEFEFE"/>
<path d="M25.1161 12.811H25.8149L25.825 13.0746C25.8199 13.1202 25.8554 13.1405 25.9415 13.1405H26.0833L25.9567 13.5764H25.5769C25.2528 13.6018 25.1262 13.4598 25.1363 13.3027L25.1161 12.811ZM25.2022 14.874H24.5338L24.6452 14.4888H25.4098L25.5161 14.134H24.7667L24.8933 13.6981H26.9795L26.8529 14.134H26.1491L26.0427 14.4888H26.7466L26.6301 14.874H25.8706L25.7339 15.0362H26.0427L26.1187 15.5228C26.1288 15.5735 26.1288 15.6039 26.144 15.6242C26.1592 15.6394 26.2504 15.6496 26.3061 15.6496H26.3972L26.2504 16.126H26.0124C25.9769 16.126 25.9212 16.121 25.8453 16.121C25.7744 16.1108 25.7237 16.0703 25.6782 16.05C25.6326 16.0297 25.5718 15.979 25.5516 15.8827L25.4807 15.3961L25.1363 15.8726C25.03 16.0247 24.8781 16.1412 24.6249 16.1412H24.1439L24.2705 15.7205H24.4527C24.5034 15.7205 24.554 15.7002 24.5895 15.68C24.6249 15.6648 24.6553 15.6496 24.6907 15.5938L25.2022 14.874ZM17.9105 13.8197H19.6726L19.5461 14.2455H18.8422L18.7359 14.6054H19.46L19.3283 15.0413H18.6093L18.432 15.6293C18.4118 15.6952 18.6042 15.7002 18.6751 15.7002L19.0346 15.6496L18.8878 16.1362H18.0776C18.0118 16.1362 17.9662 16.126 17.8953 16.1108C17.8295 16.0956 17.794 16.0601 17.7687 16.0196C17.7383 15.9689 17.6928 15.9334 17.7231 15.827L17.9561 15.0464H17.556L17.6877 14.6003H18.0877L18.1941 14.2404H17.789L17.9156 13.8147L17.9105 13.8197ZM19.1308 13.0493H19.8549L19.7233 13.4903H18.7359L18.6295 13.5815C18.5789 13.6271 18.5688 13.6119 18.508 13.6423C18.4523 13.6727 18.3358 13.7285 18.1839 13.7285H17.8649L17.9915 13.3027H18.0877C18.1687 13.3027 18.2244 13.2926 18.2548 13.2774C18.2852 13.2571 18.3206 13.2115 18.3612 13.1405L18.5434 12.806H19.2625L19.1308 13.0493ZM20.493 13.7792C20.493 13.7792 20.6904 13.5967 21.0246 13.5409C21.1006 13.5257 21.5816 13.5308 21.5816 13.5308L21.6525 13.2875H20.6347L20.493 13.7792ZM21.4449 13.9667H20.4373L20.3765 14.1745H21.2525C21.3588 14.1644 21.3791 14.1796 21.3842 14.1695L21.4449 13.9667ZM20.1385 12.811H20.7512L20.6651 13.1253C20.6651 13.1253 20.8575 12.9682 20.9943 12.9124C21.131 12.8617 21.4348 12.8161 21.4348 12.8161L22.4323 12.811L22.0931 13.9566C22.0374 14.1492 21.9665 14.2759 21.926 14.3367C21.8905 14.3925 21.845 14.4483 21.7589 14.4939C21.6728 14.5395 21.5968 14.5648 21.5259 14.5699C21.4601 14.575 21.3588 14.58 21.2221 14.58H20.26L19.9917 15.4874C19.9663 15.5786 19.9562 15.6191 19.9714 15.6445C19.9815 15.6648 20.022 15.6901 20.0625 15.6901L20.4828 15.6496L20.336 16.1463H19.8651C19.7132 16.1463 19.6018 16.1412 19.5258 16.1362C19.4549 16.126 19.379 16.1362 19.3233 16.0956C19.2777 16.0551 19.2119 16.0044 19.2169 15.9486C19.222 15.8979 19.2422 15.8168 19.2726 15.7053L20.1385 12.811Z" fill="#FEFEFE"/>
<path d="M21.926 14.6358L21.8703 14.9095C21.8449 14.9956 21.8247 15.0615 21.7639 15.1173C21.6981 15.1731 21.6171 15.2339 21.4348 15.2339L21.0955 15.2491L21.0904 15.5583C21.0854 15.6444 21.1107 15.6343 21.1208 15.6495C21.136 15.6647 21.1512 15.6698 21.1664 15.6799L21.2727 15.6698L21.5968 15.6546L21.4601 16.1108H21.0854C20.8221 16.1108 20.6297 16.1006 20.5689 16.055C20.5031 16.0145 20.498 15.9638 20.498 15.8776L20.5233 14.6662H21.1208L21.1107 14.9145H21.2575C21.3082 14.9145 21.3436 14.9095 21.3639 14.8993C21.3841 14.8892 21.3943 14.8689 21.4044 14.8385L21.4652 14.6459H21.9361L21.926 14.6358ZM13.4139 8.57349C13.3937 8.66979 13.0088 10.4591 13.0088 10.4591C12.9227 10.819 12.862 11.0825 12.6645 11.2447C12.548 11.341 12.4113 11.3867 12.2543 11.3867C12.0012 11.3867 11.8543 11.2599 11.8341 11.0217L11.829 10.9406C11.829 10.9406 11.9049 10.4591 11.9049 10.454C11.9049 10.454 12.305 8.82186 12.3809 8.60897C12.386 8.59883 12.386 8.58869 12.386 8.58362C11.6011 8.59376 11.4644 8.58362 11.4543 8.57349C11.4492 8.58869 11.429 8.69007 11.429 8.69007L11.0188 10.53L10.9834 10.6821L10.9175 11.1941C10.9175 11.3461 10.9479 11.4678 11.0036 11.5691C11.191 11.9037 11.7277 11.9493 12.0265 11.9493C12.4164 11.9493 12.781 11.8631 13.024 11.7161C13.4544 11.4627 13.5658 11.0572 13.662 10.7074L13.7127 10.525C13.7127 10.525 14.1279 8.83199 14.1988 8.61404C14.2039 8.6039 14.2039 8.59376 14.2089 8.58869C13.6367 8.59376 13.4747 8.59376 13.4139 8.57349ZM15.7078 11.9392C15.4293 11.9341 15.328 11.9341 15.0039 11.9493L14.9938 11.924C15.0242 11.7972 15.0546 11.6756 15.0799 11.5489L15.1204 11.3765C15.1811 11.113 15.2368 10.7987 15.247 10.7074C15.2571 10.6517 15.2723 10.5098 15.1103 10.5098C15.0444 10.5098 14.9735 10.5402 14.9026 10.5757C14.8621 10.7176 14.7862 11.118 14.7457 11.2954C14.6646 11.6756 14.6596 11.7212 14.6241 11.9088L14.5988 11.9341C14.3153 11.929 14.214 11.929 13.8848 11.9442L13.8697 11.9138C13.9254 11.6857 13.976 11.4576 14.0317 11.2295C14.1684 10.6162 14.2039 10.383 14.2393 10.0688L14.2697 10.0536C14.5887 10.008 14.6697 9.99782 15.014 9.92685L15.0444 9.95727L14.9938 10.1499C15.0546 10.1144 15.1103 10.0789 15.171 10.0485C15.3381 9.9674 15.5153 9.94206 15.6166 9.94206C15.7685 9.94206 15.9356 9.98768 16.0065 10.1651C16.0723 10.3222 16.0318 10.5199 15.9407 10.9051L15.8951 11.0977C15.809 11.5286 15.7888 11.6046 15.7432 11.8986L15.7078 11.9392ZM16.8319 11.9392C16.6648 11.9392 16.5534 11.9341 16.4521 11.9392C16.3458 11.9392 16.2496 11.9493 16.0926 11.9493L16.0825 11.9392L16.0723 11.924C16.1179 11.7618 16.1382 11.706 16.1584 11.6502C16.1787 11.5945 16.1989 11.5387 16.2394 11.3715C16.2901 11.1586 16.3205 11.0065 16.3407 10.8747C16.366 10.748 16.3762 10.6416 16.3914 10.5148L16.4015 10.5047L16.4116 10.4946C16.5787 10.4692 16.6851 10.454 16.7914 10.4388C16.8977 10.4236 17.0142 10.4033 17.1864 10.3678L17.1965 10.383L17.2015 10.3983L17.1053 10.7987C17.075 10.9305 17.0395 11.0673 17.0142 11.1991C16.9534 11.483 16.9281 11.5894 16.9129 11.6654C16.8977 11.7364 16.8927 11.777 16.8673 11.9189L16.8522 11.929L16.837 11.9392H16.8319ZM18.6194 10.9457C18.6092 11.0166 18.5434 11.2904 18.4573 11.4019C18.3966 11.488 18.3307 11.5387 18.2497 11.5387C18.2244 11.5387 18.0877 11.5387 18.0826 11.3309C18.0826 11.2295 18.1029 11.1231 18.1282 11.0116C18.1991 10.6821 18.2902 10.4084 18.508 10.4084C18.6801 10.4135 18.6953 10.6162 18.6194 10.9457ZM19.3435 10.9761C19.4397 10.5452 19.3637 10.3425 19.2726 10.2208C19.1257 10.0333 18.8726 9.97247 18.6042 9.97247C18.4421 9.97247 18.0674 9.98768 17.7687 10.2665C17.556 10.4641 17.4547 10.7379 17.399 10.9964C17.3383 11.2599 17.2724 11.7364 17.7028 11.9138C17.8345 11.9696 18.0269 11.9848 18.1535 11.9848C18.4725 11.9848 18.7966 11.8935 19.0397 11.635C19.2321 11.4272 19.3131 11.1079 19.3435 10.9761ZM26.1136 11.9899C25.7743 11.9848 25.6781 11.9848 25.3692 12L25.349 11.9746C25.4351 11.6553 25.5161 11.3309 25.592 11.0065C25.6883 10.5858 25.7136 10.4033 25.744 10.16L25.7693 10.1397C26.1035 10.0891 26.1946 10.0789 26.544 10.013L26.5541 10.0434C26.4883 10.3121 26.4276 10.5757 26.3668 10.8392C26.2402 11.3968 26.1946 11.6807 26.144 11.9696L26.1136 11.9899Z" fill="#FEFEFE"/>
<path d="M25.6275 10.9964C25.6124 11.0673 25.5465 11.341 25.4604 11.4526C25.4047 11.5337 25.268 11.5843 25.1921 11.5843C25.1668 11.5843 25.0351 11.5843 25.025 11.3816C25.025 11.2802 25.0452 11.1738 25.0705 11.0623C25.1414 10.7429 25.2326 10.4692 25.4503 10.4692C25.6275 10.4743 25.7035 10.672 25.6275 10.9964ZM26.2909 11.0319C26.3871 10.601 25.9921 10.9964 25.9314 10.8544C25.8352 10.6314 25.8959 10.1854 25.5111 10.0333C25.3642 9.97247 25.0148 10.0485 24.7161 10.3273C24.5085 10.5199 24.4021 10.7936 24.3464 11.0521C24.2857 11.3106 24.2198 11.7922 24.6452 11.9594C24.7819 12.0203 24.9085 12.0355 25.03 12.0304C25.4655 12.0051 25.7946 11.3461 26.0377 11.0825C26.2301 10.8747 26.2605 11.1586 26.2909 11.0319ZM21.2475 11.9392C20.969 11.9341 20.8728 11.9341 20.5487 11.9493L20.5386 11.924C20.5689 11.7972 20.5993 11.6756 20.6246 11.5489L20.6601 11.3765C20.7208 11.113 20.7816 10.7987 20.7867 10.7074C20.7968 10.6517 20.812 10.5098 20.655 10.5098C20.5892 10.5098 20.5132 10.5402 20.4474 10.5757C20.412 10.7176 20.3309 11.118 20.2904 11.2954C20.2145 11.6756 20.2044 11.7212 20.1689 11.9088L20.1436 11.9341C19.86 11.929 19.7587 11.929 19.4296 11.9442L19.4144 11.9138C19.4701 11.6857 19.5208 11.4576 19.5765 11.2295C19.7132 10.6162 19.7436 10.383 19.7841 10.0688L19.8094 10.0536C20.1284 10.008 20.2094 9.99782 20.5537 9.92685L20.5841 9.95727L20.5335 10.1499C20.5892 10.1144 20.65 10.0789 20.7057 10.0485C20.8728 9.9674 21.05 9.94206 21.1513 9.94206C21.3032 9.94206 21.4703 9.98768 21.5412 10.1651C21.607 10.3222 21.5614 10.5199 21.4753 10.9051L21.4298 11.0977C21.3386 11.5286 21.3234 11.6046 21.2779 11.8986L21.2475 11.9392ZM23.6527 8.57856L23.4198 8.58362C22.8172 8.59376 22.5742 8.58869 22.4779 8.57349C22.4678 8.61911 22.4526 8.69514 22.4526 8.69514L22.2349 9.70383C22.2349 9.70383 21.7184 11.8479 21.6981 11.9493C22.2248 11.9392 22.4374 11.9392 22.5286 11.9544C22.5488 11.853 22.6704 11.2549 22.6754 11.2549C22.6754 11.2549 22.7818 10.819 22.7818 10.7987C22.7818 10.7987 22.8121 10.7531 22.8476 10.7328H22.8982C23.354 10.7328 23.8603 10.7328 24.2654 10.4388C24.5389 10.2361 24.7211 9.93192 24.8072 9.56697C24.8275 9.47573 24.8427 9.37436 24.8427 9.26284C24.8427 9.12092 24.8123 8.98406 24.7363 8.87255C24.5287 8.58869 24.1236 8.58362 23.6527 8.57856ZM23.9565 9.63286C23.9059 9.85589 23.7641 10.0485 23.5768 10.1347C23.4248 10.2107 23.2375 10.2208 23.0451 10.2208H22.9185L22.9286 10.1702C22.9286 10.1702 23.1565 9.16147 23.1565 9.16653L23.1666 9.11585L23.1717 9.0753L23.2628 9.08543C23.2628 9.08543 23.7388 9.12599 23.7439 9.12599C23.9312 9.19695 24.0122 9.38449 23.9565 9.63286ZM28.8885 9.9674L28.8582 9.93699C28.5189 10.008 28.4531 10.0181 28.1391 10.0637L28.1138 10.0891C28.1138 10.0941 28.1087 10.0992 28.1087 10.1043V10.0992C27.8758 10.6466 27.8809 10.53 27.6935 10.9609C27.6935 10.9406 27.6935 10.9305 27.6885 10.9102L27.6378 9.97754L27.6074 9.94713C27.2479 10.0181 27.2378 10.0282 26.9087 10.0738L26.8833 10.0992C26.8783 10.1093 26.8783 10.1245 26.8783 10.1347L26.8833 10.1397C26.9238 10.3526 26.9137 10.307 26.9542 10.6416C26.9745 10.8088 26.9998 10.9761 27.0201 11.1383C27.0504 11.412 27.0707 11.5489 27.1112 11.9645C26.8884 12.3396 26.8327 12.4815 26.615 12.811L26.6251 12.8414C26.9492 12.8313 27.0251 12.8313 27.2631 12.8313L27.3137 12.7704C27.5112 12.3649 28.8936 9.97247 28.8885 9.9674ZM17.1459 10.2361C17.3282 10.1043 17.3535 9.92685 17.1965 9.83562C17.0396 9.74438 16.7611 9.76972 16.5788 9.90151C16.3965 10.0282 16.3762 10.2056 16.5281 10.3019C16.6851 10.3881 16.9585 10.3678 17.1459 10.2361Z" fill="#FEFEFE"/>
<path d="M27.2783 12.811L27.0099 13.2774C26.9238 13.4345 26.7669 13.5561 26.5137 13.5561L26.0833 13.546L26.2099 13.1253H26.2959C26.3415 13.1253 26.3719 13.1202 26.3972 13.1101C26.4225 13.1 26.4327 13.0848 26.4529 13.0594L26.615 12.806L27.2783 12.811Z" fill="#FEFEFE"/>
</svg>
