<svg width="34" height="24" viewBox="0 0 34 24" fill="none" xmlns="http://www.w3.org/2000/svg">
<path fill-rule="evenodd" clip-rule="evenodd" d="M28.9 0H5.1C2.28335 0 0 2.30254 0 5.14286V18.8571C0 21.6975 2.28335 24 5.1 24H28.9C31.7167 24 34 21.6975 34 18.8571V5.14286C34 2.30254 31.7167 0 28.9 0ZM3.40014 5.14284C3.40014 4.19607 4.16125 3.42856 5.10014 3.42856H28.9001C29.839 3.42856 30.6001 4.19607 30.6001 5.14284V6.85713H3.40014V5.14284ZM28.9001 20.5714C29.839 20.5714 30.6001 19.8039 30.6001 18.8571V10.2857H3.40014V18.8571C3.40014 19.8039 4.16125 20.5714 5.10014 20.5714H28.9001ZM8.49979 17.1429H15.2998C16.2387 17.1429 16.9998 16.3754 16.9998 15.4286C16.9998 14.4818 16.2387 13.7143 15.2998 13.7143H8.49979C7.56091 13.7143 6.79979 14.4818 6.79979 15.4286C6.79979 16.3754 7.56091 17.1429 8.49979 17.1429ZM25.4999 17.1429H22.0999C21.161 17.1429 20.3999 16.3754 20.3999 15.4286C20.3999 14.4818 21.161 13.7143 22.0999 13.7143H25.4999C26.4387 13.7143 27.1999 14.4818 27.1999 15.4286C27.1999 16.3754 26.4387 17.1429 25.4999 17.1429Z" fill="#99ACC2"/>
</svg>
