<svg width="39" height="24" viewBox="0 0 117 72" fill="none" xmlns="http://www.w3.org/2000/svg">
<rect x="1.5" y="1.5" width="114" height="69" rx="6.5" fill="white" stroke="#231F20" stroke-width="3"/>
<path d="M52.5823 49.5333H45.3201L49.8589 22.4833H57.1219L52.5823 49.5333ZM39.2107 22.4833L32.2872 41.0885L31.468 37.0821L31.4687 37.0835L29.0251 24.9189C29.0251 24.9189 28.7296 22.4833 25.5801 22.4833H14.1343L14 22.9414C14 22.9414 17.5002 23.6476 21.5965 26.0332L27.9059 49.534H35.4725L47.0266 22.4833H39.2107V22.4833ZM96.3317 49.5333H103L97.186 22.4826H91.3482C88.6524 22.4826 87.9958 24.4985 87.9958 24.4985L77.1648 49.5333H84.7352L86.2491 45.5153H95.4811L96.3317 49.5333ZM88.3405 39.9648L92.1563 29.8421L94.303 39.9648H88.3405ZM77.7326 28.9882L78.769 23.1794C78.769 23.1794 75.571 22 72.2372 22C68.6334 22 60.0751 23.5275 60.0751 30.9549C60.0751 37.9431 70.1197 38.03 70.1197 41.7006C70.1197 45.3713 61.11 44.7136 58.1366 42.3989L57.057 48.4725C57.057 48.4725 60.2997 50 65.2541 50C70.21 50 77.6863 47.5116 77.6863 40.739C77.6863 33.7059 67.5515 33.0511 67.5515 29.9933C67.5522 26.9347 74.6249 27.3276 77.7326 28.9882V28.9882Z" fill="#191F70"/>
</svg>
