<svg width="39" height="24" viewBox="0 0 39 24" fill="none" xmlns="http://www.w3.org/2000/svg">
<rect x="0.5" y="0.5" width="38" height="23" rx="2.5" fill="white" stroke="#1A1F71"/>
<path d="M12.5268 6.69374L9.66644 13.9396L8.50682 7.77869C8.36767 7.08897 7.83424 6.69374 7.23897 6.69374H2.56185L2.5 7.00373C3.45862 7.21297 4.54866 7.55395 5.21351 7.91043C5.61551 8.12742 5.73147 8.32116 5.86289 8.84814L8.0507 17.3417H10.9575L15.4104 6.70149H12.5268V6.69374ZM16.5932 6.69374L14.3204 17.334H17.0648L19.3377 6.69374H16.5932ZM32.3408 9.56885L33.1758 13.5677H30.8952L32.3408 9.56885ZM31.9388 6.69374C31.4131 6.69374 30.9648 7.00372 30.7715 7.47645L26.651 17.3417H29.5268L30.0989 15.7531H33.6241L33.9566 17.3417H36.5L34.2813 6.70149H31.9388V6.69374ZM20.0875 10.0183C20.0721 11.5528 21.4482 12.4052 22.4918 12.9167C23.5587 13.4359 23.922 13.7691 23.9143 14.2419C23.9065 14.9548 23.0639 15.2726 22.2676 15.2803C20.8838 15.3036 20.0875 14.9083 19.4459 14.6061L18.9511 16.9387C19.5928 17.2332 20.7756 17.489 22.0048 17.5045C24.8884 17.5045 26.7747 16.0785 26.7901 13.8621C26.8056 11.0568 22.917 10.9018 22.9402 9.64635C22.9479 9.26661 23.3113 8.85588 24.1075 8.75514C24.5018 8.70089 25.5841 8.66214 26.8133 9.22787L27.2926 6.97273C26.6278 6.73249 25.7851 6.5 24.726 6.5C22.0125 6.5 20.103 7.94918 20.0875 10.0183Z" fill="#1A1F71"/>
</svg>

